<svg viewBox="0 0 100 100" xmlns="http://www.w3.org/2000/svg" display="none">
  <symbol id="document">
    <path fill-rule="evenodd" d="M13.107 3.393c.167.167.31.393.429.678.119.286.178.548.178.786v10.286c0 .238-.083.44-.25.607a.827.827 0 0 1-.607.25h-12a.826.826 0 0 1-.607-.25.827.827 0 0 1-.25-.607V.857C0 .62.083.417.25.25A.827.827 0 0 1 .857 0h8c.238 0 .5.06.786.179.286.119.512.261.678.428l2.786 2.786ZM9.143 1.214v3.357H12.5c-.06-.172-.125-.294-.196-.366L9.509 1.411c-.072-.072-.194-.137-.366-.197Zm3.428 4.5v9.143H1.143V1.143H8v3.714c0 .238.083.44.25.607.167.167.369.25.607.25h3.714Z" clip-rule="evenodd"/>
  </symbol>

  <symbol id="save">
    <path fill-rule="evenodd" d="M10.576.598 15.91 5.93a.89.89 0 0 1 .258.631v7.111a2.667 2.667 0 0 1-2.666 2.667H2.834a2.667 2.667 0 0 1-2.667-2.667V3.006A2.667 2.667 0 0 1 2.834.34h7.111a.969.969 0 0 1 .347.07.89.89 0 0 1 .284.188Zm-1.52 1.52H5.501v1.777h3.555V2.118Zm1.778 12.444H5.5v-2.667c0-.49.398-.888.888-.888h3.556c.49 0 .889.397.889.888v2.667Zm2.667 0c.49 0 .889-.398.889-.889V6.926l-3.556-3.555v1.413c0 .491-.398.89-.889.89H4.612a.889.889 0 0 1-.89-.89V2.118h-.888a.889.889 0 0 0-.889.888v10.667c0 .491.398.889.889.889h.889v-2.667A2.667 2.667 0 0 1 6.389 9.23h3.556a2.667 2.667 0 0 1 2.667 2.666v2.667h.889Z" clip-rule="evenodd"/>
  </symbol>

  <symbol id="delete">
    <path fill-rule="evenodd" d="M17 4h-4V3a3 3 0 0 0-3-3H8a3 3 0 0 0-3 3v1H1a1 1 0 0 0 0 2h1v11a3 3 0 0 0 3 3h8a3 3 0 0 0 3-3V6h1a1 1 0 1 0 0-2ZM7 16a1 1 0 0 0 1-1V9a1 1 0 1 0-2 0v6a1 1 0 0 0 1 1ZM8 2a1 1 0 0 0-1 1v1h4V3a1 1 0 0 0-1-1H8Zm6 15a1 1 0 0 1-1 1H5a1 1 0 0 1-1-1V6h10v11Zm-2-2a1 1 0 1 1-2 0V9a1 1 0 1 1 2 0v6Z" clip-rule="evenodd"/>
  </symbol>

  <symbol id="dark-mode">
    <path fill-rule="evenodd" d="M15.277 8.689a.823.823 0 0 1 .864.115.822.822 0 0 1 .296.864A8.341 8.341 0 1 1 4.921.052a.823.823 0 0 1 1.094.93 7.066 7.066 0 0 0-.205 1.644 6.704 6.704 0 0 0 6.695 6.663 6.622 6.622 0 0 0 2.772-.6ZM2.053 9.822a6.696 6.696 0 0 0 6.274 4.485v.033a6.671 6.671 0 0 0 5.906-3.554 8.35 8.35 0 0 1-10.068-8.16v-.222a6.696 6.696 0 0 0-2.112 7.418Z" clip-rule="evenodd"/>
  </symbol>

  <symbol id="light-mode">
    <path fill-rule="evenodd" d="M9 2.7a.9.9 0 0 0 .9-.9V.9a.9.9 0 1 0-1.8 0v.9a.9.9 0 0 0 .9.9ZM1.8 8.1a.9.9 0 1 1 0 1.8H.9a.9.9 0 1 1 0-1.8h.9Zm.837 6.039.639-.639a.9.9 0 0 1 1.269 1.269l-.639.639a.9.9 0 0 1-1.269 0 .9.9 0 0 1 0-1.269Zm12.087-9.594a.9.9 0 0 1-.63.261.9.9 0 0 1-.594-.261.9.9 0 0 1 0-1.269l.594-.639a.9.9 0 1 1 1.269 1.269l-.639.639Zm-11.43 0a.9.9 0 0 0 1.269 0 .9.9 0 0 0 0-1.269l-.639-.639a.904.904 0 0 0-1.287 1.269l.657.639ZM16.2 8.1h.9a.9.9 0 1 1 0 1.8h-.9a.9.9 0 1 1 0-1.8Zm-1.476 5.4a.9.9 0 0 0-1.224 1.224l.639.639a.9.9 0 0 0 1.269 0 .9.9 0 0 0 0-1.269l-.684-.594ZM4.05 9A4.95 4.95 0 0 1 9 4.05 4.959 4.959 0 0 1 13.95 9a4.95 4.95 0 0 1-9.9 0ZM9 12.15a3.15 3.15 0 1 1 0-6.3 3.15 3.15 0 0 1 0 6.3Zm-.9 4.05a.9.9 0 1 1 1.8 0v.9a.9.9 0 1 1-1.8 0v-.9Z" clip-rule="evenodd"/>
  </symbol>

  <symbol id="show-preview">
    <path fill-rule="evenodd" d="M15.893 5.201C15.38 4.314 12.566-.14 7.784.003 3.362.115.803 4.002.107 5.201a.8.8 0 0 0 0 .8c.504.872 3.199 5.198 7.909 5.198h.2c4.422-.112 6.99-3.998 7.677-5.198a.8.8 0 0 0 0-.8ZM8.176 9.6C4.729 9.68 2.482 6.729 1.778 5.6c.8-1.287 2.887-3.918 6.086-3.998 3.43-.088 5.686 2.87 6.397 3.998C13.438 6.89 11.375 9.52 8.177 9.6ZM8 2.802A2.799 2.799 0 1 0 8 8.4a2.799 2.799 0 0 0 0-5.598Zm0 3.999a1.2 1.2 0 1 1 0-2.4 1.2 1.2 0 0 1 0 2.4Z" clip-rule="evenodd"/>
  </symbol>

    <symbol id="hide-preview">
      <path fill-rule="evenodd" d="M2.149.233a.795.795 0 1 0-1.125 1.124l4.457 4.457a2.77 2.77 0 0 0 3.753 3.753l4.457 4.457a.792.792 0 0 0 1.124 0 .792.792 0 0 0 0-1.124L2.15.232Zm5.77 8.083a1.188 1.188 0 0 1-1.187-1.188v-.055l1.235 1.235-.047.008Zm7.815-1.584c-.507-.878-3.302-5.288-8.028-5.145a7.505 7.505 0 0 0-2.557.53l1.25 1.25c.44-.115.892-.181 1.347-.197 3.396-.087 5.628 2.842 6.333 3.958a10.849 10.849 0 0 1-1.813 2.154l1.195 1.116a12.578 12.578 0 0 0 2.304-2.874.792.792 0 0 0-.031-.792Zm-7.64 4.355c-3.404.079-5.637-2.842-6.333-3.959a10.846 10.846 0 0 1 1.773-2.153L2.378 3.859A12.58 12.58 0 0 0 .106 6.732a.792.792 0 0 0 0 .792c.499.863 3.167 5.146 7.83 5.146h.198a7.504 7.504 0 0 0 2.557-.53L9.44 10.889c-.44.115-.891.182-1.346.198Z" clip-rule="evenodd"/>
    </symbol>
</svg>
