<svg fill="none" xmlns="http://www.w3.org/2000/svg" viewBox="0 0 130 12">
  <g fill="#fff">
    <path d="M.75 11c.075-.56.147-1.12.218-1.68.07-.56.145-1.168.224-1.823l.443-3.585c.085-.645.163-1.255.232-1.83L2.086.305h2.497c.24.61.47 1.194.687 1.751.217.558.433 1.111.649 1.661l1.274 3.27h.165l1.238-3.262.626-1.65c.208-.545.427-1.135.656-1.77h2.468a1662.354 1662.354 0 0 0 .457 3.615l.458 3.6c.08.65.156 1.25.229 1.8.072.55.143 1.11.213 1.68h-2.347c-.09-.75-.178-1.463-.263-2.138-.085-.675-.162-1.307-.232-1.897l-.315-2.535h-.165l-.93 2.722c-.225.67-.451 1.334-.679 1.992A224.11 224.11 0 0 0 8.137 11H6.502a323.626 323.626 0 0 0-.952-2.524L5.048 7.16 4.013 4.43h-.165L3.54 6.95c-.07.595-.146 1.231-.229 1.909L3.053 11H.75Z"/>
    <path fill-rule="evenodd" clip-rule="evenodd" d="M20.364 9.185 19.767 11h2.476l.513-1.759c.047-.16.093-.32.14-.476h3.851A649.393 649.393 0 0 1 27.38 11h2.55l-.581-1.793c-.203-.625-.401-1.232-.596-1.822L27.56 3.71A393.076 393.076 0 0 1 26.45.305h-3.18c-.175.54-.35 1.076-.525 1.609-.175.532-.37 1.131-.585 1.796l-1.207 3.667-.59 1.808Zm5.854-2.265h1.17l.21 1.845h-.851c-.12-.421-.237-.826-.35-1.215l-.18-.63Zm0 0H23.43l1.316-4.523h.18l1.29 4.523Zm-2.787 0-.169.577c-.117.409-.24.831-.367 1.268h-.547l.262-1.845h.82Z"/>
    <path d="M36.28 11V.305h4.103c.87 0 1.606.096 2.208.289.603.192 1.06.513 1.373.963.312.45.468 1.063.468 1.838 0 .615-.12 1.167-.363 1.657s-.632.878-1.166 1.163c-.535.285-1.236.427-2.1.427l.952-.9 1.455 2.145c.225.33.465.684.72 1.062l.746 1.102.642.949H42.52c-.27-.42-.53-.822-.78-1.208-.25-.385-.492-.76-.727-1.125l-1.733-2.73 1.462 1.118H38.26V5.292h1.785c.4 0 .736-.048 1.009-.146.272-.097.478-.264.618-.499s.21-.557.21-.967c0-.305-.044-.551-.134-.739a1.092 1.092 0 0 0-.364-.439 1.314 1.314 0 0 0-.51-.21 3.08 3.08 0 0 0-.567-.052h-3.36L38.703.695V11H36.28Z"/>
    <path fill-rule="evenodd" clip-rule="evenodd" d="M51.66 9.327V11h2.46V6.41h.495l1.41 2.017c.28.405.566.817.859 1.234L57.818 11h2.977c-.24-.325-.517-.705-.833-1.14a1928.306 1928.306 0 0 1-1.905-2.633L56.612 5.23l1.303-1.609A345.723 345.723 0 0 1 60.608.305h-2.843a678.353 678.353 0 0 1-1.92 2.52l-1.26 1.65h-.465V.305h-2.46v9.022Zm2.46-4.852V6.41h-.195V4.475h.195ZM67.138 9.327V11h3.705c1.044 0 1.93-.137 2.654-.412.725-.275 1.31-.658 1.752-1.148.442-.49.765-1.061.967-1.714a7.088 7.088 0 0 0 .304-2.111c0-.845-.115-1.596-.345-2.254a4.525 4.525 0 0 0-1.001-1.669A4.232 4.232 0 0 0 73.565.657C72.93.422 72.205.305 71.39.305H67.138v9.022Zm3.697-.3h-1.23v-6.75h1.358c.52 0 .967.08 1.342.237.375.157.684.382.926.675.243.292.423.641.54 1.046.118.405.177.855.177 1.35 0 .655-.1 1.242-.3 1.762-.2.52-.527.93-.98 1.23-.452.3-1.063.45-1.833.45ZM85.735 10.756c.705.298 1.54.447 2.505.447 1.185 0 2.185-.243 3-.728a4.77 4.77 0 0 0 1.856-1.98c.423-.835.634-1.785.634-2.85 0-.77-.115-1.49-.345-2.16a5.04 5.04 0 0 0-1.039-1.77A4.76 4.76 0 0 0 90.61.519C89.915.23 89.103.087 88.172.087c-1.224 0-2.246.248-3.063.743a4.743 4.743 0 0 0-1.845 2.006c-.413.843-.619 1.784-.619 2.824 0 .735.111 1.435.334 2.1a5.116 5.116 0 0 0 1.016 1.774c.455.517 1.035.925 1.74 1.222ZM89.5 8.89c-.37.187-.802.281-1.297.281-.5 0-.937-.094-1.31-.281a2.633 2.633 0 0 1-.93-.773 3.488 3.488 0 0 1-.558-1.125 4.722 4.722 0 0 1-.188-1.346c0-.475.066-.925.195-1.35.13-.425.32-.801.57-1.129a2.63 2.63 0 0 1 .934-.769c.373-.185.802-.277 1.287-.277.47 0 .887.09 1.252.27.365.18.674.43.926.75.253.32.445.694.578 1.121.132.428.198.889.198 1.384 0 .47-.06.916-.183 1.339a3.518 3.518 0 0 1-.552 1.128c-.245.33-.552.59-.922.777Z"/>
    <path d="m102.105 11-.45-1.699c-.16-.602-.31-1.161-.45-1.676l-.885-3.36a560.615 560.615 0 0 1-1.05-3.96h2.783l.427 2.066.428 2.059.742 3.637h.188l.765-3.682c.09-.42.183-.864.281-1.331.097-.468.196-.937.296-1.407l.285-1.342h2.633l.438 2.044c.153.707.302 1.391.447 2.051l.795 3.667h.18l.757-3.69a3710.609 3710.609 0 0 1 .833-4.072h2.79c-.175.635-.357 1.302-.544 2.002-.188.7-.361 1.345-.521 1.935l-.915 3.383c-.145.53-.298 1.095-.458 1.695-.16.6-.312 1.16-.457 1.68h-3L108 9.114c-.155-.658-.3-1.284-.435-1.879l-.795-3.39h-.187l-.765 3.39c-.13.59-.272 1.217-.424 1.882L104.963 11h-2.858ZM120.71 11V.305h2.152l1.418 2.066 1.335 1.946 1.74 2.52h.18V.305h2.317V11h-2.13c-.41-.6-.84-1.225-1.29-1.875l-1.477-2.13-1.763-2.55h-.172V11h-2.31Z"/>
  </g>
</svg>
